<?xml version="1.0" standalone="no"?>
<!DOCTYPE svg PUBLIC "-//W3C//DTD SVG 20010904//EN"
 "http://www.w3.org/TR/2001/REC-SVG-20010904/DTD/svg10.dtd">
<svg version="1.0" xmlns="http://www.w3.org/2000/svg"
 width="1280.000000pt" height="1280.000000pt" viewBox="0 0 1280.000000 1280.000000"
 preserveAspectRatio="xMidYMid meet">
<metadata>
Created by potrace 1.15, written by Peter Selinger 2001-2017
</metadata>
<g transform="translate(0.000000,1280.000000) scale(0.100000,-0.100000)"
fill="#085588" stroke="none">
<path d="M1070 12793 c-311 -49 -545 -165 -733 -363 -158 -164 -263 -367 -314
-600 -17 -82 -18 -294 -18 -5430 0 -5136 1 -5348 18 -5430 106 -489 458 -841
947 -947 82 -17 294 -18 5430 -18 5136 0 5348 1 5430 18 321 69 591 249 762
507 96 145 148 270 185 440 17 82 18 294 18 5430 0 5136 -1 5348 -18 5430 -69
321 -249 591 -507 762 -140 92 -257 142 -430 184 -72 18 -289 19 -5410 20
-2934 1 -5346 0 -5360 -3z m10663 -668 c189 -49 343 -203 392 -392 13 -50 15
-693 15 -5333 0 -4640 -2 -5283 -15 -5333 -49 -189 -203 -343 -392 -392 -50
-13 -693 -15 -5333 -15 -4640 0 -5283 2 -5333 15 -189 49 -343 203 -392 392
-13 50 -15 693 -15 5333 0 4640 2 5283 15 5333 48 186 202 342 388 392 44 12
826 14 5332 14 4646 1 5288 -1 5338 -14z"/>
<path d="M5305 10977 c-2 -6 -6 -860 -10 -1897 -3 -1036 -8 -1886 -9 -1888 -3
-3 -292 86 -1826 560 -338 104 -646 199 -683 211 l-69 21 -243 486 -243 486
-74 21 c-54 15 -721 209 -892 260 -18 5 -18 0 -12 -113 3 -66 20 -387 36 -714
57 -1117 80 -1553 82 -1556 2 -1 165 -52 363 -114 198 -61 459 -142 580 -180
121 -38 382 -119 580 -180 198 -61 459 -142 580 -180 121 -38 382 -119 580
-180 198 -61 459 -142 580 -180 121 -38 382 -119 580 -180 198 -61 459 -142
580 -180 121 -38 382 -119 580 -180 198 -61 459 -142 580 -180 121 -38 382
-119 580 -180 198 -61 459 -142 580 -180 121 -38 382 -119 580 -180 198 -61
459 -142 580 -180 121 -38 351 -109 510 -158 160 -50 407 -127 550 -171 318
-99 380 -112 515 -112 221 1 410 86 540 242 65 78 103 148 141 259 31 90 33
103 34 240 0 125 -3 155 -23 220 -82 262 -266 444 -552 543 -41 14 -361 112
-710 217 -349 106 -691 209 -760 230 -69 21 -336 102 -595 180 -258 78 -526
159 -595 180 -69 21 -262 80 -430 130 -168 50 -310 93 -316 95 -5 1 -19 45
-31 96 -19 90 -985 4232 -987 4235 -1 1 -275 36 -611 78 -335 43 -616 79 -623
81 -7 3 -14 -1 -17 -8z"/>
<path d="M5226 5230 c-112 -19 -231 -114 -284 -227 -24 -51 -27 -70 -27 -158
0 -88 3 -107 27 -158 76 -162 256 -260 420 -227 252 49 389 294 298 532 -43
115 -166 214 -294 237 -66 12 -70 12 -140 1z"/>
<path d="M6120 4985 c-356 -100 -391 -582 -54 -737 41 -19 66 -23 154 -23 99
0 110 2 171 32 80 39 150 111 187 191 24 50 27 69 27 157 0 92 -3 106 -32 167
-62 132 -182 213 -326 223 -48 3 -90 0 -127 -10z"/>
<path d="M1397 2563 c-4 -3 -7 -179 -7 -390 l0 -383 5010 0 5010 0 -2 388 -3
387 -5001 3 c-2750 1 -5004 -1 -5007 -5z"/>
</g>
</svg>
